<?xml version="1.0" standalone="no"?>
<!DOCTYPE svg PUBLIC "-//W3C//DTD SVG 20010904//EN"
 "http://www.w3.org/TR/2001/REC-SVG-20010904/DTD/svg10.dtd">
<svg version="1.0" xmlns="http://www.w3.org/2000/svg"
 width="512.000000pt" height="512.000000pt" viewBox="0 0 512.000000 512.000000"
 preserveAspectRatio="xMidYMid meet">
<metadata>
Created by potrace 1.14, written by Peter Selinger 2001-2017
</metadata>
<g transform="translate(0.000000,512.000000) scale(0.100000,-0.100000)"
fill="#000000" stroke="none">
<path d="M2930 3954 c-47 -8 -96 -19 -110 -24 -14 -6 -46 -12 -72 -15 -25 -2
-77 -12 -115 -21 -54 -14 -118 -18 -308 -19 -132 -1 -253 -5 -270 -9 -66 -17
-269 -88 -308 -107 -173 -87 -387 -256 -473 -375 -16 -22 -46 -60 -66 -84 -21
-25 -67 -92 -102 -150 -35 -58 -80 -130 -98 -160 -45 -72 -100 -189 -127 -270
-12 -36 -26 -74 -31 -85 -5 -11 -17 -63 -25 -115 -9 -52 -18 -106 -21 -120 -2
-14 -9 -59 -14 -100 -14 -110 -30 -205 -48 -290 -9 -41 -17 -77 -17 -80 -1 -3
-8 -21 -16 -40 -62 -142 -102 -376 -88 -514 13 -128 58 -237 124 -302 29 -28
58 -61 65 -73 11 -21 16 -22 74 -16 46 5 72 3 100 -9 44 -18 83 -20 121 -6 33
13 25 27 -20 36 -46 8 -103 67 -111 114 -11 69 -14 77 -39 88 -14 6 -25 18
-25 26 0 7 -6 16 -14 19 -51 20 -58 286 -11 392 53 119 125 264 134 269 6 4
11 17 11 28 0 12 10 41 21 65 12 25 26 61 31 81 5 20 14 55 19 77 6 22 12 51
14 65 2 14 6 36 10 50 3 14 8 34 10 45 2 11 8 43 15 70 6 28 15 73 20 100 27
165 51 258 85 325 14 27 25 58 25 69 0 10 19 41 43 67 23 27 58 73 77 101 19
29 38 53 41 53 4 0 19 19 34 43 59 90 168 207 217 233 15 8 47 28 72 44 24 17
60 37 80 45 19 8 38 19 41 25 4 6 11 8 16 5 5 -4 12 1 15 9 3 9 10 16 15 16 5
0 28 12 50 26 23 14 73 32 112 40 40 8 83 20 96 27 33 17 242 13 301 -5 8 -3
33 -11 54 -18 70 -22 313 -22 466 1 170 26 299 27 371 4 89 -29 189 -83 284
-156 117 -89 135 -112 226 -279 5 -8 20 -44 35 -80 14 -36 34 -83 44 -105 36
-81 44 -115 70 -302 10 -72 39 -174 60 -213 6 -12 16 -49 21 -83 5 -34 17 -84
25 -110 14 -43 19 -48 39 -43 14 4 25 1 28 -7 3 -6 6 2 6 18 2 53 39 228 61
285 12 30 33 86 46 124 14 38 29 75 35 82 8 10 7 24 -1 50 -10 29 -10 38 0 44
10 6 8 23 -9 76 -11 37 -21 73 -21 80 0 24 -51 125 -108 216 -55 86 -64 100
-106 164 -11 16 -49 74 -85 128 -73 110 -122 164 -224 248 -91 74 -169 112
-297 144 -58 14 -114 32 -125 39 -11 6 -40 15 -65 19 -25 4 -67 11 -95 16 -73
13 -198 10 -295 -6z m615 -254 c3 -5 2 -10 -4 -10 -5 0 -13 5 -16 10 -3 6 -2
10 4 10 5 0 13 -4 16 -10z m-2392 -825 c-3 -9 -8 -14 -10 -11 -3 3 -2 9 2 15
9 16 15 13 8 -4z"/>
<path d="M3062 3304 c-254 -66 -373 -186 -510 -513 -78 -189 -102 -314 -96
-501 2 -63 5 -186 6 -272 2 -137 4 -156 16 -145 12 9 16 9 19 0 3 -7 14 -24
25 -39 19 -24 26 -26 66 -20 57 8 86 31 71 58 -12 21 -10 171 3 273 4 39 10
89 12 112 3 23 9 50 14 60 5 10 7 24 4 32 -2 7 0 37 6 65 6 28 16 87 23 131 6
44 15 88 20 97 5 9 11 30 12 45 2 15 9 42 15 58 19 48 85 169 98 180 6 6 24
29 38 52 14 23 35 47 47 54 12 6 37 27 56 45 18 19 40 34 48 34 7 0 15 5 17
11 3 10 48 23 125 36 41 7 47 -10 59 -160 5 -72 2 -97 -26 -207 -17 -69 -35
-134 -40 -145 -9 -20 -75 -351 -105 -522 -8 -51 -24 -127 -34 -170 -11 -43
-27 -127 -36 -188 -9 -60 -20 -137 -25 -170 -17 -106 -6 -269 25 -365 42 -133
69 -182 132 -246 89 -88 113 -103 251 -148 89 -29 175 -34 272 -16 30 5 64 12
75 13 43 8 102 33 145 63 25 17 58 34 74 38 30 7 196 130 196 145 0 4 12 21
26 37 50 56 60 69 79 99 10 17 31 44 47 60 30 33 105 149 131 205 36 77 51
163 52 300 0 106 -3 145 -17 183 -19 51 -23 95 -13 142 4 17 8 52 9 78 2 26 8
53 14 59 7 7 12 20 12 30 0 17 -1 17 -25 2 -14 -9 -25 -12 -25 -8 -1 16 -101
-148 -135 -220 -58 -120 -82 -195 -115 -346 -37 -173 -34 -165 -121 -310 -160
-268 -298 -380 -466 -380 -112 0 -239 77 -290 175 -36 69 -47 141 -46 295 0
156 1 163 37 350 13 69 30 161 36 205 7 44 21 118 32 165 22 92 24 105 33 195
3 33 7 76 10 95 3 19 7 58 9 85 2 28 10 64 17 80 15 33 21 443 7 452 -5 2 -8
11 -8 19 0 17 -21 65 -48 109 -25 40 -112 81 -187 88 -45 4 -83 -1 -153 -19z
m1378 -1504 c0 -5 -5 -10 -11 -10 -5 0 -7 5 -4 10 3 6 8 10 11 10 2 0 4 -4 4
-10z"/>
<path d="M1494 2803 c-3 -10 -10 -29 -15 -43 -4 -14 -11 -41 -14 -60 -3 -19
-8 -48 -12 -65 -3 -16 -7 -145 -8 -285 -1 -292 -3 -301 -105 -495 -28 -55 -60
-116 -71 -136 -10 -20 -35 -85 -55 -145 -35 -102 -37 -117 -38 -234 0 -97 4
-137 18 -180 35 -100 92 -194 143 -233 15 -12 31 -27 36 -33 4 -7 31 -20 60
-30 28 -9 57 -20 63 -25 5 -4 21 -6 35 -3 18 4 20 3 10 -4 -13 -9 27 -17 119
-24 30 -3 120 14 126 23 3 5 18 9 33 9 16 0 34 7 41 15 7 8 16 12 21 9 5 -3
23 -3 39 1 22 5 30 12 30 28 0 25 65 87 90 87 10 0 35 -21 56 -46 51 -60 104
-96 184 -123 83 -28 168 -35 250 -22 36 6 72 12 80 12 8 1 45 8 83 16 67 15
75 22 68 66 0 4 13 7 30 7 23 0 30 -4 26 -14 -4 -10 -1 -13 9 -9 16 6 19 49 4
58 -16 10 -12 30 11 56 14 16 19 32 15 50 -3 19 1 32 14 44 22 20 16 43 -6 24
-7 -6 -20 -9 -29 -6 -8 4 -22 -4 -34 -18 -10 -14 -21 -25 -24 -25 -3 0 -25
-13 -49 -29 -24 -16 -83 -48 -133 -72 -76 -37 -98 -44 -150 -44 -76 1 -154 36
-212 95 -48 50 -61 85 -38 109 8 10 15 23 15 30 0 7 4 10 9 6 13 -7 73 46 91
82 8 15 23 40 33 54 14 19 20 49 23 110 2 46 6 101 10 123 6 35 4 37 -14 32
-16 -5 -25 0 -38 24 -13 21 -24 28 -36 24 -10 -3 -26 4 -39 17 -21 21 -27 21
-133 15 -63 -4 -117 -13 -126 -20 -20 -16 -71 -39 -90 -40 -22 -1 -24 -61 -5
-164 16 -88 44 -172 57 -172 13 0 38 -58 32 -72 -3 -7 -41 -43 -83 -80 -153
-133 -184 -148 -267 -127 -74 19 -103 39 -175 122 -61 71 -68 83 -79 143 -22
127 2 217 114 438 40 78 78 161 85 186 7 25 19 56 26 70 7 14 16 39 20 55 8
32 8 184 0 225 -2 14 -7 41 -9 60 -3 19 -8 54 -12 77 l-7 43 60 -1 c33 -1 70
4 81 10 11 6 23 11 26 11 11 0 6 -26 -6 -39 -7 -6 -14 -29 -15 -49 -1 -20 -5
-69 -9 -109 -6 -70 -5 -73 21 -98 41 -37 96 -51 136 -35 44 19 106 84 114 120
4 16 14 34 23 39 40 23 -9 225 -58 238 -11 3 -20 9 -20 14 0 16 -60 39 -117
45 -46 4 -72 0 -125 -19 -37 -13 -78 -31 -91 -40 -41 -27 -48 2 -22 100 30
115 15 199 -43 238 -44 30 -51 31 -58 8z m744 -1270 c36 -17 39 -25 17 -50 -9
-10 -36 -43 -62 -73 -25 -30 -49 -56 -52 -57 -3 -2 -17 19 -30 46 -28 57 -25
123 6 147 21 16 70 11 121 -13z m-8 -193 c0 -5 -5 -10 -11 -10 -5 0 -7 5 -4
10 3 6 8 10 11 10 2 0 4 -4 4 -10z m-25 -30 c3 -5 1 -10 -4 -10 -6 0 -11 5
-11 10 0 6 2 10 4 10 3 0 8 -4 11 -10z m560 -356 c-11 -9 -29 -20 -40 -26 -16
-9 -15 -6 5 15 14 15 32 27 40 27 11 -1 10 -5 -5 -16z m9 -29 c-4 -8 -8 -15
-10 -15 -2 0 -4 7 -4 15 0 8 4 15 10 15 5 0 7 -7 4 -15z m-54 -45 c0 -5 -5
-10 -11 -10 -5 0 -7 5 -4 10 3 6 8 10 11 10 2 0 4 -4 4 -10z"/>
<path d="M2874 2421 c-75 -34 -118 -103 -127 -203 -5 -57 -3 -70 14 -92 50
-63 120 -72 181 -25 59 47 91 103 90 158 -2 63 -12 121 -22 121 -5 0 -15 12
-22 28 -16 34 -56 39 -114 13z"/>
</g>
</svg>
